<?xml version="1.0" encoding="UTF-8"?>
<!DOCTYPE svg PUBLIC "-//W3C//DTD SVG 1.1//EN" "http://www.w3.org/Graphics/SVG/1.1/DTD/svg11.dtd">
<!-- Creator: CorelDRAW -->
<svg xmlns="http://www.w3.org/2000/svg" xml:space="preserve" width="1.70666in" height="1.70666in" version="1.1" style="shape-rendering:geometricPrecision; text-rendering:geometricPrecision; image-rendering:optimizeQuality; fill-rule:evenodd; clip-rule:evenodd"
viewBox="0 0 1707 1707"
 xmlns:xlink="http://www.w3.org/1999/xlink">
 <defs>
  <style type="text/css">
   <![CDATA[
    .fil0 {fill:black}
   ]]>
  </style>
 </defs>
 <g id="Layer_x0020_1">
  <metadata id="CorelCorpID_0Corel-Layer"/>
  <g id="_423915720">
   <g>
    <g>
     <g>
      <path class="fil0" d="M853 1053c-88,0 -161,-72 -161,-161 0,-89 73,-161 161,-161 89,0 161,72 161,161 0,89 -72,161 -161,161zm0 -273c-61,0 -112,51 -112,112 0,62 50,112 112,112 63,0 113,-50 113,-112 0,-63 -50,-112 -113,-112z"/>
     </g>
     <g>
      <path class="fil0" d="M970 1436c-14,0 -25,-12 -25,-25l0 -131c0,-14 11,-25 25,-25 14,0 25,11 25,25l0 131c-2,13 -13,25 -25,25z"/>
     </g>
     <g>
      <path class="fil0" d="M738 1436c-14,0 -25,-12 -25,-25l0 -131c0,-14 11,-25 25,-25 14,0 25,11 25,25l0 131c0,13 -11,25 -25,25z"/>
     </g>
     <g>
      <path class="fil0" d="M1061 1436l-416 0c-14,0 -25,-12 -25,-25l0 -217c0,-51 42,-91 93,-91l280 0c52,0 92,41 92,91l0 217c1,13 -10,25 -24,25zm-392 -49l369 0 0 -193c0,-23 -20,-43 -43,-43l-282 0c-23,0 -44,20 -44,43l0 193z"/>
     </g>
    </g>
    <g>
     <path class="fil0" d="M1165 596c-1,0 -4,0 -7,-1 -12,-3 -20,-17 -16,-29l120 -452 -213 -57 -118 437c-4,12 -17,21 -29,16 -13,-4 -21,-16 -17,-29l124 -460c4,-13 16,-21 29,-17l262 70c12,2 21,16 17,29l-127 475c-4,12 -14,18 -25,18z"/>
    </g>
    <g>
     <path class="fil0" d="M541 596c-11,0 -21,-6 -23,-18l-128 -477c-3,-12 4,-26 17,-29l263 -70c6,-2 13,-2 18,2 6,3 10,9 11,16l124 461c4,13 -4,27 -17,29 -12,3 -26,-4 -29,-16l-118 -440 -215 58 122 454c4,12 -4,26 -16,29 -5,1 -6,1 -9,1z"/>
    </g>
    <g>
     <path class="fil0" d="M853 1602c-285,0 -518,-233 -518,-519 0,-287 233,-520 518,-520 287,0 520,233 520,520 0,286 -233,519 -520,519zm0 -989c-259,0 -470,211 -470,472 0,259 211,470 470,470 260,0 472,-211 472,-470 0,-261 -212,-472 -472,-472z"/>
    </g>
    <g>
     <path class="fil0" d="M853 1706c-342,0 -622,-279 -622,-623 0,-344 278,-622 622,-622 344,0 623,280 623,622 0,344 -279,623 -623,623zm0 -1197c-316,0 -574,258 -574,574 0,316 258,574 574,574 318,0 574,-258 574,-574 0,-316 -256,-574 -574,-574z"/>
    </g>
   </g>
  </g>
 </g>
</svg>
